<?xml version="1.0" encoding="UTF-8"?>
<svg xmlns="http://www.w3.org/2000/svg" xmlns:xlink="http://www.w3.org/1999/xlink" width="320" height="320" viewBox="0 0 320 320">
<rect x="-32" y="-32" width="384" height="384" fill="rgb(100%, 100%, 100%)" fill-opacity="1"/>
<path fill-rule="nonzero" fill="rgb(30.999756%, 50.59967%, 89.399719%)" fill-opacity="1" d="M 291.289062 120.570312 C 291.289062 179.339844 231.761719 226.980469 158.332031 226.980469 C 84.90625 226.980469 25.378906 179.339844 25.378906 120.570312 C 25.378906 61.800781 84.90625 14.160156 158.332031 14.160156 C 231.761719 14.160156 291.289062 61.800781 291.289062 120.570312 "/>
<path fill-rule="nonzero" fill="rgb(72.499084%, 80.39856%, 95.698547%)" fill-opacity="1" d="M 144.964844 23.984375 C 144.652344 26.835938 170.71875 25.59375 184.007812 44.28125 C 192.109375 55.675781 187.183594 62.835938 195.074219 69.367188 C 205.328125 77.847656 216.652344 68.242188 244.503906 72.316406 C 261.875 74.859375 269.195312 80.3125 271.085938 77.609375 C 274.496094 72.734375 255.234375 48.5 229.683594 34.273438 C 189.773438 12.050781 145.371094 20.296875 144.964844 23.984375 "/>
<path fill-rule="nonzero" fill="rgb(94.499207%, 96.099854%, 99.198914%)" fill-opacity="1" d="M 229.648438 40.457031 C 230.582031 38.371094 223.488281 32.195312 215.617188 30.445312 C 214.871094 30.28125 209.066406 29.03125 208.289062 30.703125 C 207.492188 32.414062 212.1875 36.746094 217.035156 39 C 221.996094 41.308594 228.847656 42.253906 229.648438 40.457031 "/>
<path fill-rule="nonzero" fill="rgb(88.999939%, 87.5%, 98.799133%)" fill-opacity="1" d="M 231.910156 154.125 L 88.089844 154.125 L 88.089844 305.839844 L 231.910156 305.839844 Z M 231.910156 154.125 "/>
<path fill-rule="nonzero" fill="rgb(21.598816%, 21.199036%, 23.899841%)" fill-opacity="1" d="M 193.019531 211.835938 C 193.019531 201.125 178.667969 192.441406 160.964844 192.441406 C 143.261719 192.441406 128.910156 201.125 128.910156 211.835938 C 128.910156 211.957031 128.921875 212.074219 128.925781 212.195312 L 128.910156 212.195312 L 128.910156 289.835938 L 193.019531 289.835938 L 193.019531 212.195312 L 193.003906 212.195312 C 193.007812 212.074219 193.019531 211.957031 193.019531 211.835938 "/>
<path fill-rule="nonzero" fill="rgb(66.699219%, 65.499878%, 74.099731%)" fill-opacity="1" d="M 88.085938 305.839844 L 4.214844 277.070312 L 4.214844 125.347656 L 88.085938 154.125 Z M 88.085938 305.839844 "/>
<path fill-rule="nonzero" fill="rgb(10.598755%, 10.598755%, 11.799622%)" fill-opacity="1" d="M 70.03125 207.769531 C 70.03125 196.902344 60.035156 183.539062 47.707031 177.925781 C 35.375 172.3125 25.378906 176.570312 25.378906 187.4375 C 25.378906 187.5625 25.386719 187.683594 25.390625 187.808594 L 25.378906 187.804688 L 25.378906 266.585938 L 70.03125 283.609375 L 70.03125 208.132812 L 70.023438 208.128906 C 70.023438 208.007812 70.03125 207.890625 70.03125 207.769531 "/>
<path fill-rule="nonzero" fill="rgb(93.299866%, 92.498779%, 99.198914%)" fill-opacity="1" d="M 231.910156 305.839844 L 315.785156 277.070312 L 315.785156 125.347656 L 231.910156 154.125 Z M 231.910156 305.839844 "/>
<path fill-rule="nonzero" fill="rgb(37.298584%, 36.898804%, 39.199829%)" fill-opacity="1" d="M 251.523438 207.769531 C 251.523438 196.902344 261.519531 183.539062 273.847656 177.925781 C 286.179688 172.3125 296.175781 176.570312 296.175781 187.4375 C 296.175781 187.5625 296.167969 187.683594 296.164062 187.808594 L 296.175781 187.804688 L 296.175781 266.585938 L 251.523438 283.609375 L 251.523438 208.132812 L 251.53125 208.128906 C 251.53125 208.007812 251.523438 207.890625 251.523438 207.769531 "/>
<path fill-rule="nonzero" fill="rgb(0%, 0%, 0%)" fill-opacity="1" d="M 26.183594 108.789062 C 25.378906 112.0625 25.378906 114.894531 25.378906 114.894531 C 25.867188 128.910156 99.902344 144.605469 160.558594 144.734375 C 187.121094 144.789062 204.953125 142.054688 219.5625 139.742188 C 235.390625 137.238281 290.082031 125.6875 291.183594 116.386719 C 291.523438 113.539062 290.675781 110.324219 290.675781 110.324219 C 290.675781 110.324219 300.304688 115.84375 315.785156 125.347656 L 230.902344 154.125 L 88.085938 154.125 L 4.214844 125.347656 C 13.328125 118.480469 17.074219 115.65625 26.183594 108.789062 "/>
</svg>
