<?xml version="1.0" encoding="UTF-8"?>
<svg id="Ebene_1" data-name="Ebene 1" xmlns="http://www.w3.org/2000/svg" version="1.1" viewBox="0 0 320 320">
  <defs>
    <style>
      .cls-1 {
        fill: #aaa7bd;
      }

      .cls-1, .cls-2, .cls-3, .cls-4, .cls-5, .cls-6, .cls-7, .cls-8, .cls-9, .cls-10 {
        stroke-width: 0px;
      }

      .cls-2 {
        fill: #37363d;
      }

      .cls-3 {
        fill: #000;
      }

      .cls-4 {
        fill: #f1f5fd;
      }

      .cls-5 {
        fill: #1b1b1e;
      }

      .cls-6 {
        fill: #eeecfd;
      }

      .cls-7 {
        fill: #b9cdf4;
      }

      .cls-8 {
        fill: #e3dffc;
      }

      .cls-9 {
        fill: #4f81e4;
      }

      .cls-10 {
        fill: #5f5e64;
      }
    </style>
  </defs>
  <path class="cls-9" d="M291.3,120.6c0,58.8-59.5,106.4-133,106.4S25.4,179.3,25.4,120.6,84.9,14.2,158.3,14.2s133,47.6,133,106.4"/>
  <path class="cls-7" d="M145,24c-.3,2.9,25.8,1.6,39,20.3,8.1,11.4,3.2,18.6,11.1,25.1,10.3,8.5,21.6-1.1,49.4,2.9,17.4,2.5,24.7,8,26.6,5.3,3.4-4.9-15.9-29.1-41.4-43.3-39.9-22.2-84.3-14-84.7-10.3"/>
  <path class="cls-4" d="M229.6,40.5c.9-2.1-6.2-8.3-14-10-.7-.2-6.6-1.4-7.3.3-.8,1.7,3.9,6,8.7,8.3,5,2.3,11.8,3.3,12.6,1.5"/>
  <path class="cls-8" d="M231.9,154.1H88.1v151.7h143.8v-151.7Z"/>
  <path class="cls-2" d="M193,211.8c0-10.7-14.4-19.4-32.1-19.4s-32.1,8.7-32.1,19.4,0,.2,0,.4h0v77.6h64.1v-77.6h0c0-.1,0-.2,0-.4"/>
  <path class="cls-1" d="M88.1,305.8l-83.9-28.8V125.3l83.9,28.8v151.7Z"/>
  <path class="cls-5" d="M70,207.8c0-10.9-10-24.2-22.3-29.8-12.3-5.6-22.3-1.4-22.3,9.5s0,.2,0,.4h0s0,78.8,0,78.8l44.7,17v-75.5h0c0-.1,0-.2,0-.4"/>
  <path class="cls-6" d="M231.9,305.8l83.9-28.8V125.3l-83.9,28.8v151.7Z"/>
  <path class="cls-10" d="M251.5,207.8c0-10.9,10-24.2,22.3-29.8,12.3-5.6,22.3-1.4,22.3,9.5s0,.2,0,.4h0s0,78.8,0,78.8l-44.7,17v-75.5h0c0-.1,0-.2,0-.4"/>
  <path class="cls-3" d="M26.2,108.8c-.8,3.3-.8,6.1-.8,6.1.5,14,74.5,29.7,135.2,29.8,26.6,0,44.4-2.7,59-5,15.8-2.5,70.5-14.1,71.6-23.4.3-2.8-.5-6.1-.5-6.1,0,0,9.6,5.5,25.1,15l-84.9,28.8H88.1L4.2,125.3c9.1-6.9,12.9-9.7,22-16.6"/>
</svg>